<svg xmlns="http://www.w3.org/2000/svg" xmlns:xlink="http://www.w3.org/1999/xlink" width="512" height="512" id="star">
  <defs>
    <linearGradient xlink:href="#a" id="b" x1="1056.035" x2="1031.176" y1="544.13" y2="517.701" gradientTransform="matrix(.78 0 0 .85773 -730.99 561.597)" gradientUnits="userSpaceOnUse"></linearGradient>
    <linearGradient id="a">
      <stop offset="0" stop-color="#5a5a5a"></stop>
      <stop offset="1" stop-color="#656e85"></stop>
    </linearGradient>
  </defs>
  <g transform="matrix(1.06795 0 0 .97117 -76.11 -974.96)">
    <rect width="24.346" height="26.772" x="71.267" y="1003.899" fill="url(#b)" rx="5.145" ry="5.658"></rect>
    <path fill="#fff" d="M83.478 1010.077c.05.074.098.137.162.255.194.355.422.868.647 1.397.226.53.449 1.077.653 1.53.102.225.198.427.293.599.096.172.164.31.34.453.177.143.318.174.496.224.177.049.382.09.609.131.453.081.996.155 1.524.235.527.081 1.041.17 1.408.268.121.033.19.064.27.095-.05.076-.089.145-.171.248-.248.313-.622.71-1.012 1.107-.39.399-.795.801-1.124 1.153-.165.176-.31.34-.43.492-.12.152-.218.267-.288.495-.069.227-.053.384-.04.585.012.2.038.426.073.676.07.498.175 1.087.268 1.662.093.575.175 1.138.202 1.552.01.136.003.217 0 .31-.08-.027-.152-.048-.267-.101-.348-.162-.807-.43-1.273-.713-.466-.284-.94-.582-1.347-.817a7.042 7.042 0 0 0-.559-.296c-.169-.077-.3-.145-.518-.147-.219 0-.35.064-.52.138-.17.075-.358.173-.564.286-.41.227-.889.518-1.359.793s-.933.534-1.283.69c-.115.052-.188.071-.269.097-.001-.093-.006-.174.005-.31.034-.413.124-.975.225-1.548.102-.573.215-1.16.292-1.657a8.72 8.72 0 0 0 .084-.675c.015-.2.034-.357-.032-.586-.066-.229-.164-.345-.28-.5a7.74 7.74 0 0 0-.423-.499c-.324-.358-.724-.767-1.107-1.172a16.142 16.142 0 0 1-.996-1.125c-.08-.105-.119-.174-.167-.251.08-.03.15-.06.271-.091.369-.093.884-.172 1.412-.243.529-.071 1.073-.135 1.528-.208.227-.036.432-.075.61-.121.18-.046.32-.075.499-.215.178-.14.249-.277.347-.447.098-.17.197-.37.302-.594.21-.449.442-.992.675-1.518a17.34 17.34 0 0 1 .668-1.385c.066-.117.114-.179.166-.252z" color="#000" font-family="sans-serif" font-weight="400" overflow="visible" style="line-height:normal;text-indent:0;text-align:start;text-decoration-line:none;text-decoration-style:solid;text-decoration-color:#000;text-transform:none;block-progression:tb;isolation:auto;mix-blend-mode:normal;marker:none"></path>
  </g>
</svg>
